<svg width="19" height="19" viewBox="0 0 19 19" fill="none" xmlns="http://www.w3.org/2000/svg">
<path d="M11.2813 14.8438C11.2811 15.1703 11.1912 15.4905 11.0213 15.7693C10.8515 16.0482 10.6083 16.275 10.3182 16.425C10.0282 16.575 9.70251 16.6424 9.37677 16.6198C9.05103 16.5972 8.73777 16.4855 8.47121 16.2969C8.20466 16.1083 7.99507 15.8501 7.86535 15.5505C7.73563 15.2508 7.69077 14.9213 7.73567 14.5979C7.78057 14.2744 7.91351 13.9696 8.11995 13.7166C8.3264 13.4636 8.5984 13.2723 8.90625 13.1634V7.71875C8.90625 7.56128 8.96881 7.41026 9.08016 7.29891C9.19151 7.18756 9.34253 7.125 9.5 7.125C9.65747 7.125 9.8085 7.18756 9.91985 7.29891C10.0312 7.41026 10.0938 7.56128 10.0938 7.71875V13.1634C10.4412 13.2863 10.742 13.5138 10.9547 13.8148C11.1673 14.1157 11.2814 14.4752 11.2813 14.8438Z" fill="#F59627"/>
<path d="M6.53125 2.96875C6.53125 2.18139 6.84403 1.42628 7.40078 0.869527C7.95753 0.312778 8.71264 0 9.5 0C10.2874 0 11.0425 0.312778 11.5992 0.869527C12.156 1.42628 12.4688 2.18139 12.4688 2.96875V11.9344C13.0415 12.519 13.429 13.2596 13.5825 14.0635C13.736 14.8674 13.6488 15.6987 13.3317 16.4532C13.0147 17.2078 12.4819 17.8519 11.8003 18.3048C11.1186 18.7578 10.3184 18.9994 9.5 18.9994C8.68159 18.9994 7.88138 18.7578 7.19974 18.3048C6.51809 17.8519 5.98534 17.2078 5.66829 16.4532C5.35124 15.6987 5.26401 14.8674 5.41753 14.0635C5.57104 13.2596 5.95848 12.519 6.53125 11.9344V2.96875ZM9.5 1.1875C9.02759 1.1875 8.57452 1.37517 8.24047 1.70922C7.90642 2.04327 7.71875 2.49633 7.71875 2.96875V12.4533L7.52044 12.6314C7.07224 13.0322 6.75632 13.5597 6.61446 14.144C6.47261 14.7283 6.51152 15.3419 6.72604 15.9036C6.94056 16.4653 7.32058 16.9486 7.81581 17.2896C8.31104 17.6306 8.89814 17.8131 9.49941 17.8131C10.1007 17.8131 10.6878 17.6306 11.183 17.2896C11.6782 16.9486 12.0583 16.4653 12.2728 15.9036C12.4873 15.3419 12.5262 14.7283 12.3844 14.144C12.2425 13.5597 11.9266 13.0322 11.4784 12.6314L11.2813 12.4533V2.96875C11.2813 2.49633 11.0936 2.04327 10.7595 1.70922C10.4255 1.37517 9.97242 1.1875 9.5 1.1875Z" fill="#F59627"/>
</svg>
