<svg width="19" height="19" viewBox="0 0 19 19" fill="none" xmlns="http://www.w3.org/2000/svg">
<g clip-path="url(#clip0_9_103)">
<path d="M14.8438 2.375C14.0564 2.375 13.3013 2.68778 12.7445 3.24453C12.1878 3.80128 11.875 4.55639 11.875 5.34375C11.875 5.50122 11.8124 5.65224 11.7011 5.76359C11.5897 5.87494 11.4387 5.9375 11.2812 5.9375C11.1238 5.9375 10.9728 5.87494 10.8614 5.76359C10.7501 5.65224 10.6875 5.50122 10.6875 5.34375C10.6875 4.52172 10.9313 3.71815 11.388 3.03466C11.8446 2.35117 12.4938 1.81845 13.2532 1.50388C14.0127 1.1893 14.8484 1.10699 15.6546 1.26736C16.4608 1.42773 17.2014 1.82358 17.7827 2.40484C18.3639 2.9861 18.7598 3.72667 18.9201 4.53291C19.0805 5.33914 18.9982 6.17482 18.6836 6.93428C18.369 7.69373 17.8363 8.34285 17.1528 8.79954C16.4693 9.25624 15.6658 9.5 14.8438 9.5H0.59375C0.436278 9.5 0.285255 9.43744 0.173905 9.32609C0.0625556 9.21474 0 9.06372 0 8.90625C0 8.74878 0.0625556 8.59775 0.173905 8.4864C0.285255 8.37505 0.436278 8.3125 0.59375 8.3125H14.8438C15.6311 8.3125 16.3862 7.99972 16.943 7.44297C17.4997 6.88622 17.8125 6.13111 17.8125 5.34375C17.8125 4.55639 17.4997 3.80128 16.943 3.24453C16.3862 2.68778 15.6311 2.375 14.8438 2.375ZM6.53125 3.5625C6.21631 3.5625 5.91426 3.68761 5.69156 3.91031C5.46886 4.13301 5.34375 4.43505 5.34375 4.75C5.34375 4.90747 5.28119 5.05849 5.16984 5.16984C5.0585 5.28119 4.90747 5.34375 4.75 5.34375C4.59253 5.34375 4.4415 5.28119 4.33016 5.16984C4.21881 5.05849 4.15625 4.90747 4.15625 4.75C4.15625 4.28027 4.29554 3.82109 4.55651 3.43052C4.81748 3.03995 5.1884 2.73554 5.62238 2.55579C6.05635 2.37603 6.53388 2.32899 6.99459 2.42063C7.45529 2.51227 7.87848 2.73847 8.21063 3.07062C8.54278 3.40277 8.76898 3.82596 8.86061 4.28666C8.95226 4.74736 8.90522 5.2249 8.72546 5.65887C8.54571 6.09285 8.2413 6.46377 7.85073 6.72474C7.46016 6.98571 7.00098 7.125 6.53125 7.125H0.59375C0.436278 7.125 0.285255 7.06244 0.173905 6.95109C0.0625556 6.83974 0 6.68872 0 6.53125C0 6.37378 0.0625556 6.22275 0.173905 6.1114C0.285255 6.00005 0.436278 5.9375 0.59375 5.9375H6.53125C6.84619 5.9375 7.14824 5.81239 7.37094 5.58969C7.59364 5.36699 7.71875 5.06494 7.71875 4.75C7.71875 4.43505 7.59364 4.13301 7.37094 3.91031C7.14824 3.68761 6.84619 3.5625 6.53125 3.5625ZM0 11.2812C0 11.1238 0.0625556 10.9728 0.173905 10.8614C0.285255 10.7501 0.436278 10.6875 0.59375 10.6875H12.5186C13.2232 10.6875 13.912 10.8964 14.4978 11.2879C15.0837 11.6793 15.5403 12.2357 15.8099 12.8867C16.0796 13.5377 16.1501 14.254 16.0127 14.945C15.8752 15.6361 15.5359 16.2708 15.0377 16.7691C14.5395 17.2673 13.9047 17.6066 13.2136 17.744C12.5226 17.8815 11.8063 17.811 11.1553 17.5413C10.5044 17.2717 9.94797 16.8151 9.55651 16.2292C9.16506 15.6434 8.95613 14.9546 8.95613 14.25C8.95613 14.0925 9.01868 13.9415 9.13003 13.8302C9.24138 13.7188 9.3924 13.6562 9.54988 13.6562C9.70735 13.6562 9.85837 13.7188 9.96972 13.8302C10.0811 13.9415 10.1436 14.0925 10.1436 14.25C10.1436 14.7197 10.2829 15.1789 10.5439 15.5695C10.8049 15.96 11.1758 16.2645 11.6098 16.4442C12.0437 16.624 12.5213 16.671 12.982 16.5794C13.4427 16.4877 13.8659 16.2615 14.198 15.9294C14.5302 15.5972 14.7564 15.174 14.848 14.7133C14.9396 14.2526 14.8926 13.7751 14.7128 13.3411C14.5331 12.9072 14.2287 12.5362 13.8381 12.2753C13.4475 12.0143 12.9884 11.875 12.5186 11.875H0.59375C0.436278 11.875 0.285255 11.8124 0.173905 11.7011C0.0625556 11.5897 0 11.4387 0 11.2812Z" fill="#F59627"/>
</g>
<defs>
<clipPath id="clip0_9_103">
<rect width="19" height="19" fill="white"/>
</clipPath>
</defs>
</svg>
