<svg width="19" height="19" viewBox="0 0 19 19" fill="none" xmlns="http://www.w3.org/2000/svg">
<path d="M14.0224 8.66408L10.2401 2.80966C10.1852 2.7348 10.1127 2.67376 10.0286 2.63165C9.94455 2.58954 9.85135 2.56757 9.75678 2.56757C9.66221 2.56757 9.569 2.58954 9.48494 2.63165C9.40087 2.67376 9.32838 2.7348 9.2735 2.80966L5.47408 8.69181C4.94623 9.51943 4.65221 10.4677 4.62164 11.441C4.62164 12.7648 5.16266 14.0344 6.12569 14.9705C7.08871 15.9066 8.39486 16.4324 9.75678 16.4324C11.1187 16.4324 12.4248 15.9066 13.3879 14.9705C14.3509 14.0344 14.8919 12.7648 14.8919 11.441C14.8591 10.457 14.5591 9.49896 14.0224 8.66408ZM9.75678 15.3232C8.69792 15.3219 7.68282 14.9125 6.9341 14.1847C6.18537 13.4569 5.76414 12.4702 5.76278 11.441C5.79311 10.6654 6.03278 9.91125 6.45774 9.25418L6.99122 8.42782L12.7391 14.0149C12.3658 14.426 11.9069 14.7553 11.3927 14.981C10.8786 15.2066 10.3209 15.3229 9.75678 15.3232Z" fill="#F59627"/>
</svg>
