<svg width="19" height="19" viewBox="0 0 19 19" fill="none" xmlns="http://www.w3.org/2000/svg">
<path d="M9.50002 4.75C10.9557 4.74517 12.3832 5.15121 13.6184 5.92145C14.8536 6.6917 15.8463 7.79488 16.4825 9.10417C15.1763 11.7721 12.5004 13.4583 9.50002 13.4583C6.49961 13.4583 3.82377 11.7721 2.51752 9.10417C3.15372 7.79488 4.14648 6.6917 5.38168 5.92145C6.61687 5.15121 8.04436 4.74517 9.50002 4.75ZM9.50002 3.16667C5.54169 3.16667 2.16127 5.62875 0.791687 9.10417C2.16127 12.5796 5.54169 15.0417 9.50002 15.0417C13.4584 15.0417 16.8388 12.5796 18.2084 9.10417C16.8388 5.62875 13.4584 3.16667 9.50002 3.16667ZM9.50002 7.125C10.0249 7.125 10.5283 7.33352 10.8995 7.70469C11.2707 8.07585 11.4792 8.57926 11.4792 9.10417C11.4792 9.62908 11.2707 10.1325 10.8995 10.5037C10.5283 10.8748 10.0249 11.0833 9.50002 11.0833C8.97512 11.0833 8.47171 10.8748 8.10054 10.5037C7.72937 10.1325 7.52086 9.62908 7.52086 9.10417C7.52086 8.57926 7.72937 8.07585 8.10054 7.70469C8.47171 7.33352 8.97512 7.125 9.50002 7.125ZM9.50002 5.54167C7.53669 5.54167 5.93752 7.14084 5.93752 9.10417C5.93752 11.0675 7.53669 12.6667 9.50002 12.6667C11.4634 12.6667 13.0625 11.0675 13.0625 9.10417C13.0625 7.14084 11.4634 5.54167 9.50002 5.54167Z" fill="#F59627"/>
</svg>
